<mxfile host="app.diagrams.net" modified="2020-05-30T16:58:27.555Z" agent="5.0 (Windows NT 10.0; Win64; x64) AppleWebKit/537.36 (KHTML, like Gecko) Chrome/83.0.4103.61 Safari/537.36" etag="e2kh0K555Z_Rz2KjGrl2" version="13.1.9" type="github">
  <diagram name="Page-1" id="822b0af5-4adb-64df-f703-e8dfc1f81529">
    <mxGraphModel dx="1882" dy="436" grid="1" gridSize="10" guides="1" tooltips="1" connect="1" arrows="1" fold="1" page="1" pageScale="1" pageWidth="1100" pageHeight="850" background="#ffffff" math="0" shadow="0">
      <root>
        <mxCell id="0" />
        <mxCell id="1" parent="0" />
        <mxCell id="PTj7z3cZV99JKy-nUeGR-106" value="" style="rounded=0;whiteSpace=wrap;html=1;" vertex="1" parent="1">
          <mxGeometry x="-230" y="30" width="500" height="360" as="geometry" />
        </mxCell>
        <mxCell id="PTj7z3cZV99JKy-nUeGR-169" value="" style="whiteSpace=wrap;html=1;aspect=fixed;" vertex="1" parent="1">
          <mxGeometry x="-200" y="150" width="200" height="200" as="geometry" />
        </mxCell>
        <mxCell id="PTj7z3cZV99JKy-nUeGR-170" value="Node" style="rounded=0;whiteSpace=wrap;html=1;" vertex="1" parent="1">
          <mxGeometry x="-145" y="270" width="40" height="30" as="geometry" />
        </mxCell>
        <mxCell id="PTj7z3cZV99JKy-nUeGR-171" value="Node" style="rounded=0;whiteSpace=wrap;html=1;" vertex="1" parent="1">
          <mxGeometry x="-95" y="270" width="40" height="30" as="geometry" />
        </mxCell>
        <mxCell id="PTj7z3cZV99JKy-nUeGR-172" value="Node" style="rounded=0;whiteSpace=wrap;html=1;" vertex="1" parent="1">
          <mxGeometry x="-45" y="270" width="40" height="30" as="geometry" />
        </mxCell>
        <mxCell id="PTj7z3cZV99JKy-nUeGR-173" value="Node" style="rounded=0;whiteSpace=wrap;html=1;" vertex="1" parent="1">
          <mxGeometry x="-195" y="270" width="40" height="30" as="geometry" />
        </mxCell>
        <mxCell id="PTj7z3cZV99JKy-nUeGR-174" value="Switch" style="rounded=1;whiteSpace=wrap;html=1;" vertex="1" parent="1">
          <mxGeometry x="-135" y="180" width="70" height="30" as="geometry" />
        </mxCell>
        <mxCell id="PTj7z3cZV99JKy-nUeGR-175" value="" style="endArrow=none;html=1;exitX=0.5;exitY=0;exitDx=0;exitDy=0;" edge="1" parent="1" source="PTj7z3cZV99JKy-nUeGR-173">
          <mxGeometry width="50" height="50" relative="1" as="geometry">
            <mxPoint x="-215" y="260" as="sourcePoint" />
            <mxPoint x="-175" y="240" as="targetPoint" />
          </mxGeometry>
        </mxCell>
        <mxCell id="PTj7z3cZV99JKy-nUeGR-176" value="" style="endArrow=none;html=1;" edge="1" parent="1">
          <mxGeometry width="50" height="50" relative="1" as="geometry">
            <mxPoint x="-175" y="240" as="sourcePoint" />
            <mxPoint x="-25" y="240" as="targetPoint" />
          </mxGeometry>
        </mxCell>
        <mxCell id="PTj7z3cZV99JKy-nUeGR-177" value="" style="endArrow=none;html=1;exitX=0.5;exitY=0;exitDx=0;exitDy=0;" edge="1" parent="1" source="PTj7z3cZV99JKy-nUeGR-172">
          <mxGeometry width="50" height="50" relative="1" as="geometry">
            <mxPoint x="175" y="270" as="sourcePoint" />
            <mxPoint x="-25" y="240" as="targetPoint" />
          </mxGeometry>
        </mxCell>
        <mxCell id="PTj7z3cZV99JKy-nUeGR-178" value="" style="endArrow=none;html=1;entryX=0.5;entryY=1;entryDx=0;entryDy=0;" edge="1" parent="1" target="PTj7z3cZV99JKy-nUeGR-174">
          <mxGeometry width="50" height="50" relative="1" as="geometry">
            <mxPoint x="-100" y="240" as="sourcePoint" />
            <mxPoint x="185" y="190" as="targetPoint" />
          </mxGeometry>
        </mxCell>
        <mxCell id="PTj7z3cZV99JKy-nUeGR-179" value="" style="endArrow=none;html=1;exitX=0.5;exitY=0;exitDx=0;exitDy=0;" edge="1" parent="1" source="PTj7z3cZV99JKy-nUeGR-170">
          <mxGeometry width="50" height="50" relative="1" as="geometry">
            <mxPoint x="135" y="240" as="sourcePoint" />
            <mxPoint x="-125" y="240" as="targetPoint" />
          </mxGeometry>
        </mxCell>
        <mxCell id="PTj7z3cZV99JKy-nUeGR-180" value="" style="endArrow=none;html=1;exitX=0.5;exitY=0;exitDx=0;exitDy=0;" edge="1" parent="1" source="PTj7z3cZV99JKy-nUeGR-171">
          <mxGeometry width="50" height="50" relative="1" as="geometry">
            <mxPoint x="135" y="240" as="sourcePoint" />
            <mxPoint x="-75" y="240" as="targetPoint" />
          </mxGeometry>
        </mxCell>
        <mxCell id="PTj7z3cZV99JKy-nUeGR-181" value="LAN" style="text;html=1;strokeColor=none;fillColor=none;align=center;verticalAlign=middle;whiteSpace=wrap;rounded=0;" vertex="1" parent="1">
          <mxGeometry x="-120" y="320" width="40" height="20" as="geometry" />
        </mxCell>
        <mxCell id="PTj7z3cZV99JKy-nUeGR-182" value="" style="whiteSpace=wrap;html=1;aspect=fixed;" vertex="1" parent="1">
          <mxGeometry x="40" y="150" width="200" height="200" as="geometry" />
        </mxCell>
        <mxCell id="PTj7z3cZV99JKy-nUeGR-183" value="Node" style="rounded=0;whiteSpace=wrap;html=1;" vertex="1" parent="1">
          <mxGeometry x="95" y="270" width="40" height="30" as="geometry" />
        </mxCell>
        <mxCell id="PTj7z3cZV99JKy-nUeGR-184" value="Node" style="rounded=0;whiteSpace=wrap;html=1;" vertex="1" parent="1">
          <mxGeometry x="145" y="270" width="40" height="30" as="geometry" />
        </mxCell>
        <mxCell id="PTj7z3cZV99JKy-nUeGR-185" value="Node" style="rounded=0;whiteSpace=wrap;html=1;" vertex="1" parent="1">
          <mxGeometry x="195" y="270" width="40" height="30" as="geometry" />
        </mxCell>
        <mxCell id="PTj7z3cZV99JKy-nUeGR-186" value="Node" style="rounded=0;whiteSpace=wrap;html=1;" vertex="1" parent="1">
          <mxGeometry x="45" y="270" width="40" height="30" as="geometry" />
        </mxCell>
        <mxCell id="PTj7z3cZV99JKy-nUeGR-187" value="Switch" style="rounded=1;whiteSpace=wrap;html=1;" vertex="1" parent="1">
          <mxGeometry x="105" y="180" width="70" height="30" as="geometry" />
        </mxCell>
        <mxCell id="PTj7z3cZV99JKy-nUeGR-188" value="" style="endArrow=none;html=1;exitX=0.5;exitY=0;exitDx=0;exitDy=0;" edge="1" parent="1" source="PTj7z3cZV99JKy-nUeGR-186">
          <mxGeometry width="50" height="50" relative="1" as="geometry">
            <mxPoint x="25" y="260" as="sourcePoint" />
            <mxPoint x="65" y="240" as="targetPoint" />
          </mxGeometry>
        </mxCell>
        <mxCell id="PTj7z3cZV99JKy-nUeGR-189" value="" style="endArrow=none;html=1;" edge="1" parent="1">
          <mxGeometry width="50" height="50" relative="1" as="geometry">
            <mxPoint x="65" y="240" as="sourcePoint" />
            <mxPoint x="215" y="240" as="targetPoint" />
          </mxGeometry>
        </mxCell>
        <mxCell id="PTj7z3cZV99JKy-nUeGR-190" value="" style="endArrow=none;html=1;exitX=0.5;exitY=0;exitDx=0;exitDy=0;" edge="1" parent="1" source="PTj7z3cZV99JKy-nUeGR-185">
          <mxGeometry width="50" height="50" relative="1" as="geometry">
            <mxPoint x="415" y="270" as="sourcePoint" />
            <mxPoint x="215" y="240" as="targetPoint" />
          </mxGeometry>
        </mxCell>
        <mxCell id="PTj7z3cZV99JKy-nUeGR-191" value="" style="endArrow=none;html=1;entryX=0.5;entryY=1;entryDx=0;entryDy=0;" edge="1" parent="1" target="PTj7z3cZV99JKy-nUeGR-187">
          <mxGeometry width="50" height="50" relative="1" as="geometry">
            <mxPoint x="140" y="240" as="sourcePoint" />
            <mxPoint x="425" y="190" as="targetPoint" />
          </mxGeometry>
        </mxCell>
        <mxCell id="PTj7z3cZV99JKy-nUeGR-192" value="" style="endArrow=none;html=1;exitX=0.5;exitY=0;exitDx=0;exitDy=0;" edge="1" parent="1" source="PTj7z3cZV99JKy-nUeGR-183">
          <mxGeometry width="50" height="50" relative="1" as="geometry">
            <mxPoint x="375" y="240" as="sourcePoint" />
            <mxPoint x="115" y="240" as="targetPoint" />
          </mxGeometry>
        </mxCell>
        <mxCell id="PTj7z3cZV99JKy-nUeGR-193" value="" style="endArrow=none;html=1;exitX=0.5;exitY=0;exitDx=0;exitDy=0;" edge="1" parent="1" source="PTj7z3cZV99JKy-nUeGR-184">
          <mxGeometry width="50" height="50" relative="1" as="geometry">
            <mxPoint x="375" y="240" as="sourcePoint" />
            <mxPoint x="165" y="240" as="targetPoint" />
          </mxGeometry>
        </mxCell>
        <mxCell id="PTj7z3cZV99JKy-nUeGR-194" value="LAN" style="text;html=1;strokeColor=none;fillColor=none;align=center;verticalAlign=middle;whiteSpace=wrap;rounded=0;" vertex="1" parent="1">
          <mxGeometry x="120" y="320" width="40" height="20" as="geometry" />
        </mxCell>
        <mxCell id="PTj7z3cZV99JKy-nUeGR-195" value="Router" style="rounded=1;whiteSpace=wrap;html=1;" vertex="1" parent="1">
          <mxGeometry x="-30" y="70" width="125" height="30" as="geometry" />
        </mxCell>
        <mxCell id="PTj7z3cZV99JKy-nUeGR-196" value="" style="endArrow=none;html=1;exitX=0.5;exitY=0;exitDx=0;exitDy=0;" edge="1" parent="1" source="PTj7z3cZV99JKy-nUeGR-187">
          <mxGeometry width="50" height="50" relative="1" as="geometry">
            <mxPoint x="120" y="150" as="sourcePoint" />
            <mxPoint x="140" y="90" as="targetPoint" />
          </mxGeometry>
        </mxCell>
        <mxCell id="PTj7z3cZV99JKy-nUeGR-197" value="" style="endArrow=none;html=1;" edge="1" parent="1">
          <mxGeometry width="50" height="50" relative="1" as="geometry">
            <mxPoint x="95" y="90" as="sourcePoint" />
            <mxPoint x="140" y="90" as="targetPoint" />
          </mxGeometry>
        </mxCell>
        <mxCell id="PTj7z3cZV99JKy-nUeGR-198" value="" style="endArrow=none;html=1;entryX=0.5;entryY=0;entryDx=0;entryDy=0;" edge="1" parent="1" target="PTj7z3cZV99JKy-nUeGR-174">
          <mxGeometry width="50" height="50" relative="1" as="geometry">
            <mxPoint x="-100" y="90" as="sourcePoint" />
            <mxPoint x="170" y="210" as="targetPoint" />
          </mxGeometry>
        </mxCell>
        <mxCell id="PTj7z3cZV99JKy-nUeGR-199" value="" style="endArrow=none;html=1;" edge="1" parent="1">
          <mxGeometry width="50" height="50" relative="1" as="geometry">
            <mxPoint x="-30" y="90" as="sourcePoint" />
            <mxPoint x="-100" y="90" as="targetPoint" />
          </mxGeometry>
        </mxCell>
        <mxCell id="PTj7z3cZV99JKy-nUeGR-200" value="Private Network" style="text;html=1;strokeColor=none;fillColor=none;align=center;verticalAlign=middle;whiteSpace=wrap;rounded=0;" vertex="1" parent="1">
          <mxGeometry x="-220" y="40" width="100" height="20" as="geometry" />
        </mxCell>
      </root>
    </mxGraphModel>
  </diagram>
</mxfile>
